<svg xmlns="http://www.w3.org/2000/svg" width="400" height="400" viewBox="0 0 400 400">
  <!-- Background -->
  <rect width="400" height="400" fill="#f1f5f9" rx="20" ry="20" />
  
  <!-- Image placeholder -->
  <rect x="50" y="50" width="300" height="300" fill="#e2e8f0" rx="8" ry="8" />
  
  <!-- Image icon -->
  <g transform="translate(200, 180)">
    <rect x="-40" y="-30" width="80" height="60" fill="#cbd5e1" rx="4" ry="4" />
    <circle cx="-15" cy="-10" r="8" fill="#94a3b8" />
    <path d="M-30,15 L0,-5 L10,5 L30,15" fill="none" stroke="#94a3b8" stroke-width="3" stroke-linecap="round" stroke-linejoin="round" />
  </g>
  
  <!-- Wifi off icon -->
  <g transform="translate(200, 260)">
    <circle cx="0" cy="0" r="30" fill="#dbeafe" />
    
    <g transform="translate(0, 0) scale(0.8)" stroke="#3b82f6" stroke-width="3" fill="none" stroke-linecap="round" stroke-linejoin="round">
      <line x1="-20" y1="-20" x2="20" y2="20" />
      <path d="M-24,0 A28,28 0 0,1 0,-24 A28,28 0 0,1 24,0" />
      <path d="M-16,8 A18,18 0 0,1 0,-10 A18,18 0 0,1 16,8" />
      <circle cx="0" cy="16" r="3" />
    </g>
  </g>
  
  <!-- Text -->
  <text x="200" y="330" font-family="Arial, sans-serif" font-size="18" text-anchor="middle" fill="#64748b">Image Unavailable Offline</text>
</svg>